solid opto_mount
   facet normal 7.500831e-017 -1.000000e+000 0.000000e+000
      outer loop
         vertex 1.100000e+001 8.250915e-016 2.000000e+000
         vertex 0.000000e+000 -9.629650e-032 2.000000e+000
         vertex 1.100000e+001 8.250915e-016 0.000000e+000
      endloop
   endfacet
   facet normal 7.500831e-017 -1.000000e+000 0.000000e+000
      outer loop
         vertex 1.100000e+001 8.250915e-016 0.000000e+000
         vertex 0.000000e+000 -9.629650e-032 2.000000e+000
         vertex 0.000000e+000 -9.629650e-032 0.000000e+000
      endloop
   endfacet
   facet normal 1.000000e+000 0.000000e+000 0.000000e+000
      outer loop
         vertex 1.100000e+001 1.500000e+000 2.000000e+000
         vertex 1.100000e+001 8.673617e-016 2.000000e+000
         vertex 1.100000e+001 1.500000e+000 0.000000e+000
      endloop
   endfacet
   facet normal 1.000000e+000 0.000000e+000 0.000000e+000
      outer loop
         vertex 1.100000e+001 1.500000e+000 0.000000e+000
         vertex 1.100000e+001 8.673617e-016 2.000000e+000
         vertex 1.100000e+001 8.673617e-016 0.000000e+000
      endloop
   endfacet
   facet normal 9.986320e-001 -5.228807e-002 0.000000e+000
      outer loop
         vertex 1.100000e+001 1.500000e+000 2.000000e+000
         vertex 1.100000e+001 1.500000e+000 0.000000e+000
         vertex 1.103693e+001 1.969303e+000 0.000000e+000
      endloop
   endfacet
   facet normal 9.945168e-001 -1.045761e-001 0.000000e+000
      outer loop
         vertex 1.100000e+001 1.500000e+000 2.000000e+000
         vertex 1.103693e+001 1.969303e+000 0.000000e+000
         vertex 1.103693e+001 1.969303e+000 2.000000e+000
      endloop
   endfacet
   facet normal 9.781576e-001 -2.078648e-001 0.000000e+000
      outer loop
         vertex 1.103693e+001 1.969303e+000 2.000000e+000
         vertex 1.103693e+001 1.969303e+000 0.000000e+000
         vertex 1.114683e+001 2.427051e+000 0.000000e+000
      endloop
   endfacet
   facet normal 9.659134e-001 -2.588653e-001 0.000000e+000
      outer loop
         vertex 1.103693e+001 1.969303e+000 2.000000e+000
         vertex 1.114683e+001 2.427051e+000 0.000000e+000
         vertex 1.114683e+001 2.427051e+000 2.000000e+000
      endloop
   endfacet
   facet normal 9.335976e-001 -3.583232e-001 0.000000e+000
      outer loop
         vertex 1.114683e+001 2.427051e+000 2.000000e+000
         vertex 1.114683e+001 2.427051e+000 0.000000e+000
         vertex 1.132698e+001 2.861972e+000 0.000000e+000
      endloop
   endfacet
   facet normal 9.135259e-001 -4.067805e-001 0.000000e+000
      outer loop
         vertex 1.114683e+001 2.427051e+000 2.000000e+000
         vertex 1.132698e+001 2.861972e+000 0.000000e+000
         vertex 1.132698e+001 2.861972e+000 2.000000e+000
      endloop
   endfacet
   facet normal 8.660494e-001 -4.999584e-001 0.000000e+000
      outer loop
         vertex 1.132698e+001 2.861972e+000 2.000000e+000
         vertex 1.132698e+001 2.861972e+000 0.000000e+000
         vertex 1.157295e+001 3.263356e+000 0.000000e+000
      endloop
   endfacet
   facet normal 8.386444e-001 -5.446792e-001 0.000000e+000
      outer loop
         vertex 1.132698e+001 2.861972e+000 2.000000e+000
         vertex 1.157295e+001 3.263356e+000 0.000000e+000
         vertex 1.157295e+001 3.263356e+000 2.000000e+000
      endloop
   endfacet
   facet normal 7.771761e-001 -6.292831e-001 0.000000e+000
      outer loop
         vertex 1.157295e+001 3.263356e+000 2.000000e+000
         vertex 1.157295e+001 3.263356e+000 0.000000e+000
         vertex 1.187868e+001 3.621320e+000 0.000000e+000
      endloop
   endfacet
   facet normal 7.431127e-001 -6.691663e-001 0.000000e+000
      outer loop
         vertex 1.157295e+001 3.263356e+000 2.000000e+000
         vertex 1.187868e+001 3.621320e+000 0.000000e+000
         vertex 1.187868e+001 3.621320e+000 2.000000e+000
      endloop
   endfacet
   facet normal 6.691663e-001 -7.431127e-001 0.000000e+000
      outer loop
         vertex 1.187868e+001 3.621320e+000 2.000000e+000
         vertex 1.187868e+001 3.621320e+000 0.000000e+000
         vertex 1.223664e+001 3.927051e+000 0.000000e+000
      endloop
   endfacet
   facet normal 6.292831e-001 -7.771761e-001 0.000000e+000
      outer loop
         vertex 1.187868e+001 3.621320e+000 2.000000e+000
         vertex 1.223664e+001 3.927051e+000 0.000000e+000
         vertex 1.223664e+001 3.927051e+000 2.000000e+000
      endloop
   endfacet
   facet normal 5.446792e-001 -8.386444e-001 0.000000e+000
      outer loop
         vertex 1.223664e+001 3.927051e+000 2.000000e+000
         vertex 1.223664e+001 3.927051e+000 0.000000e+000
         vertex 1.263803e+001 4.173019e+000 0.000000e+000
      endloop
   endfacet
   facet normal 4.999584e-001 -8.660494e-001 0.000000e+000
      outer loop
         vertex 1.223664e+001 3.927051e+000 2.000000e+000
         vertex 1.263803e+001 4.173019e+000 0.000000e+000
         vertex 1.263803e+001 4.173019e+000 2.000000e+000
      endloop
   endfacet
   facet normal 4.067805e-001 -9.135259e-001 0.000000e+000
      outer loop
         vertex 1.263803e+001 4.173019e+000 2.000000e+000
         vertex 1.263803e+001 4.173019e+000 0.000000e+000
         vertex 1.307295e+001 4.353169e+000 0.000000e+000
      endloop
   endfacet
   facet normal 3.583232e-001 -9.335976e-001 0.000000e+000
      outer loop
         vertex 1.263803e+001 4.173019e+000 2.000000e+000
         vertex 1.307295e+001 4.353169e+000 0.000000e+000
         vertex 1.307295e+001 4.353169e+000 2.000000e+000
      endloop
   endfacet
   facet normal 2.588653e-001 -9.659134e-001 0.000000e+000
      outer loop
         vertex 1.307295e+001 4.353169e+000 2.000000e+000
         vertex 1.307295e+001 4.353169e+000 0.000000e+000
         vertex 1.353070e+001 4.463065e+000 0.000000e+000
      endloop
   endfacet
   facet normal 2.078648e-001 -9.781575e-001 0.000000e+000
      outer loop
         vertex 1.307295e+001 4.353169e+000 2.000000e+000
         vertex 1.353070e+001 4.463065e+000 0.000000e+000
         vertex 1.353070e+001 4.463065e+000 2.000000e+000
      endloop
   endfacet
   facet normal 1.045761e-001 -9.945168e-001 0.000000e+000
      outer loop
         vertex 1.353070e+001 4.463065e+000 2.000000e+000
         vertex 1.353070e+001 4.463065e+000 0.000000e+000
         vertex 1.400000e+001 4.500000e+000 0.000000e+000
      endloop
   endfacet
   facet normal 5.228807e-002 -9.986320e-001 0.000000e+000
      outer loop
         vertex 1.353070e+001 4.463065e+000 2.000000e+000
         vertex 1.400000e+001 4.500000e+000 0.000000e+000
         vertex 1.400000e+001 4.500000e+000 2.000000e+000
      endloop
   endfacet
   facet normal -6.424902e-017 -1.000000e+000 0.000000e+000
      outer loop
         vertex 4.100000e+001 4.500000e+000 2.000000e+000
         vertex 1.400000e+001 4.500000e+000 2.000000e+000
         vertex 4.100000e+001 4.500000e+000 0.000000e+000
      endloop
   endfacet
   facet normal -6.424902e-017 -1.000000e+000 0.000000e+000
      outer loop
         vertex 4.100000e+001 4.500000e+000 0.000000e+000
         vertex 1.400000e+001 4.500000e+000 2.000000e+000
         vertex 1.400000e+001 4.500000e+000 0.000000e+000
      endloop
   endfacet
   facet normal 1.000000e+000 0.000000e+000 0.000000e+000
      outer loop
         vertex 4.100000e+001 7.500000e+000 2.000000e+000
         vertex 4.100000e+001 4.500000e+000 2.000000e+000
         vertex 4.100000e+001 7.500000e+000 0.000000e+000
      endloop
   endfacet
   facet normal 1.000000e+000 0.000000e+000 0.000000e+000
      outer loop
         vertex 4.100000e+001 7.500000e+000 0.000000e+000
         vertex 4.100000e+001 4.500000e+000 2.000000e+000
         vertex 4.100000e+001 4.500000e+000 0.000000e+000
      endloop
   endfacet
   facet normal 0.000000e+000 1.000000e+000 0.000000e+000
      outer loop
         vertex 1.400000e+001 7.500000e+000 2.000000e+000
         vertex 4.100000e+001 7.500000e+000 2.000000e+000
         vertex 1.400000e+001 7.500000e+000 0.000000e+000
      endloop
   endfacet
   facet normal 0.000000e+000 1.000000e+000 0.000000e+000
      outer loop
         vertex 1.400000e+001 7.500000e+000 0.000000e+000
         vertex 4.100000e+001 7.500000e+000 2.000000e+000
         vertex 4.100000e+001 7.500000e+000 0.000000e+000
      endloop
   endfacet
   facet normal 5.228807e-002 9.986320e-001 0.000000e+000
      outer loop
         vertex 1.400000e+001 7.500000e+000 2.000000e+000
         vertex 1.400000e+001 7.500000e+000 0.000000e+000
         vertex 1.353070e+001 7.536935e+000 0.000000e+000
      endloop
   endfacet
   facet normal 1.045761e-001 9.945168e-001 0.000000e+000
      outer loop
         vertex 1.400000e+001 7.500000e+000 2.000000e+000
         vertex 1.353070e+001 7.536935e+000 0.000000e+000
         vertex 1.353070e+001 7.536935e+000 2.000000e+000
      endloop
   endfacet
   facet normal 2.078648e-001 9.781576e-001 0.000000e+000
      outer loop
         vertex 1.353070e+001 7.536935e+000 2.000000e+000
         vertex 1.353070e+001 7.536935e+000 0.000000e+000
         vertex 1.307295e+001 7.646830e+000 0.000000e+000
      endloop
   endfacet
   facet normal 2.588653e-001 9.659134e-001 0.000000e+000
      outer loop
         vertex 1.353070e+001 7.536935e+000 2.000000e+000
         vertex 1.307295e+001 7.646830e+000 0.000000e+000
         vertex 1.307295e+001 7.646830e+000 2.000000e+000
      endloop
   endfacet
   facet normal 3.583232e-001 9.335976e-001 0.000000e+000
      outer loop
         vertex 1.307295e+001 7.646830e+000 2.000000e+000
         vertex 1.307295e+001 7.646830e+000 0.000000e+000
         vertex 1.263803e+001 7.826980e+000 0.000000e+000
      endloop
   endfacet
   facet normal 4.067805e-001 9.135259e-001 0.000000e+000
      outer loop
         vertex 1.307295e+001 7.646830e+000 2.000000e+000
         vertex 1.263803e+001 7.826980e+000 0.000000e+000
         vertex 1.263803e+001 7.826980e+000 2.000000e+000
      endloop
   endfacet
   facet normal 4.999584e-001 8.660494e-001 0.000000e+000
      outer loop
         vertex 1.263803e+001 7.826980e+000 2.000000e+000
         vertex 1.263803e+001 7.826980e+000 0.000000e+000
         vertex 1.223664e+001 8.072949e+000 0.000000e+000
      endloop
   endfacet
   facet normal 5.446792e-001 8.386444e-001 0.000000e+000
      outer loop
         vertex 1.263803e+001 7.826980e+000 2.000000e+000
         vertex 1.223664e+001 8.072949e+000 0.000000e+000
         vertex 1.223664e+001 8.072949e+000 2.000000e+000
      endloop
   endfacet
   facet normal 6.292831e-001 7.771761e-001 0.000000e+000
      outer loop
         vertex 1.223664e+001 8.072949e+000 2.000000e+000
         vertex 1.223664e+001 8.072949e+000 0.000000e+000
         vertex 1.187868e+001 8.378680e+000 0.000000e+000
      endloop
   endfacet
   facet normal 6.691663e-001 7.431127e-001 0.000000e+000
      outer loop
         vertex 1.223664e+001 8.072949e+000 2.000000e+000
         vertex 1.187868e+001 8.378680e+000 0.000000e+000
         vertex 1.187868e+001 8.378680e+000 2.000000e+000
      endloop
   endfacet
   facet normal 7.431127e-001 6.691663e-001 0.000000e+000
      outer loop
         vertex 1.187868e+001 8.378680e+000 2.000000e+000
         vertex 1.187868e+001 8.378680e+000 0.000000e+000
         vertex 1.157295e+001 8.736644e+000 0.000000e+000
      endloop
   endfacet
   facet normal 7.771761e-001 6.292831e-001 0.000000e+000
      outer loop
         vertex 1.187868e+001 8.378680e+000 2.000000e+000
         vertex 1.157295e+001 8.736644e+000 0.000000e+000
         vertex 1.157295e+001 8.736644e+000 2.000000e+000
      endloop
   endfacet
   facet normal 8.386444e-001 5.446792e-001 0.000000e+000
      outer loop
         vertex 1.157295e+001 8.736644e+000 2.000000e+000
         vertex 1.157295e+001 8.736644e+000 0.000000e+000
         vertex 1.132698e+001 9.138028e+000 0.000000e+000
      endloop
   endfacet
   facet normal 8.660494e-001 4.999584e-001 0.000000e+000
      outer loop
         vertex 1.157295e+001 8.736644e+000 2.000000e+000
         vertex 1.132698e+001 9.138028e+000 0.000000e+000
         vertex 1.132698e+001 9.138028e+000 2.000000e+000
      endloop
   endfacet
   facet normal 9.135259e-001 4.067805e-001 0.000000e+000
      outer loop
         vertex 1.132698e+001 9.138028e+000 2.000000e+000
         vertex 1.132698e+001 9.138028e+000 0.000000e+000
         vertex 1.114683e+001 9.572949e+000 0.000000e+000
      endloop
   endfacet
   facet normal 9.335976e-001 3.583232e-001 0.000000e+000
      outer loop
         vertex 1.132698e+001 9.138028e+000 2.000000e+000
         vertex 1.114683e+001 9.572949e+000 0.000000e+000
         vertex 1.114683e+001 9.572949e+000 2.000000e+000
      endloop
   endfacet
   facet normal 9.659134e-001 2.588653e-001 0.000000e+000
      outer loop
         vertex 1.114683e+001 9.572949e+000 2.000000e+000
         vertex 1.114683e+001 9.572949e+000 0.000000e+000
         vertex 1.103693e+001 1.003070e+001 0.000000e+000
      endloop
   endfacet
   facet normal 9.781575e-001 2.078648e-001 0.000000e+000
      outer loop
         vertex 1.114683e+001 9.572949e+000 2.000000e+000
         vertex 1.103693e+001 1.003070e+001 0.000000e+000
         vertex 1.103693e+001 1.003070e+001 2.000000e+000
      endloop
   endfacet
   facet normal 9.945168e-001 1.045761e-001 0.000000e+000
      outer loop
         vertex 1.103693e+001 1.003070e+001 2.000000e+000
         vertex 1.103693e+001 1.003070e+001 0.000000e+000
         vertex 1.100000e+001 1.050000e+001 0.000000e+000
      endloop
   endfacet
   facet normal 9.986320e-001 5.228807e-002 0.000000e+000
      outer loop
         vertex 1.103693e+001 1.003070e+001 2.000000e+000
         vertex 1.100000e+001 1.050000e+001 0.000000e+000
         vertex 1.100000e+001 1.050000e+001 2.000000e+000
      endloop
   endfacet
   facet normal 1.000000e+000 0.000000e+000 0.000000e+000
      outer loop
         vertex 1.100000e+001 1.200000e+001 2.000000e+000
         vertex 1.100000e+001 1.050000e+001 2.000000e+000
         vertex 1.100000e+001 1.200000e+001 0.000000e+000
      endloop
   endfacet
   facet normal 1.000000e+000 0.000000e+000 0.000000e+000
      outer loop
         vertex 1.100000e+001 1.200000e+001 0.000000e+000
         vertex 1.100000e+001 1.050000e+001 2.000000e+000
         vertex 1.100000e+001 1.050000e+001 0.000000e+000
      endloop
   endfacet
   facet normal 0.000000e+000 1.000000e+000 0.000000e+000
      outer loop
         vertex 0.000000e+000 1.200000e+001 2.000000e+000
         vertex 1.100000e+001 1.200000e+001 2.000000e+000
         vertex 0.000000e+000 1.200000e+001 0.000000e+000
      endloop
   endfacet
   facet normal 0.000000e+000 1.000000e+000 0.000000e+000
      outer loop
         vertex 0.000000e+000 1.200000e+001 0.000000e+000
         vertex 1.100000e+001 1.200000e+001 2.000000e+000
         vertex 1.100000e+001 1.200000e+001 0.000000e+000
      endloop
   endfacet
   facet normal -1.000000e+000 0.000000e+000 0.000000e+000
      outer loop
         vertex 0.000000e+000 7.500000e+000 2.000000e+000
         vertex 0.000000e+000 1.200000e+001 2.000000e+000
         vertex 0.000000e+000 7.500000e+000 0.000000e+000
      endloop
   endfacet
   facet normal -1.000000e+000 0.000000e+000 0.000000e+000
      outer loop
         vertex 0.000000e+000 7.500000e+000 0.000000e+000
         vertex 0.000000e+000 1.200000e+001 2.000000e+000
         vertex 0.000000e+000 1.200000e+001 0.000000e+000
      endloop
   endfacet
   facet normal 0.000000e+000 -1.000000e+000 0.000000e+000
      outer loop
         vertex 8.500000e+000 7.500000e+000 2.000000e+000
         vertex 0.000000e+000 7.500000e+000 2.000000e+000
         vertex 8.500000e+000 7.500000e+000 0.000000e+000
      endloop
   endfacet
   facet normal 0.000000e+000 -1.000000e+000 0.000000e+000
      outer loop
         vertex 8.500000e+000 7.500000e+000 0.000000e+000
         vertex 0.000000e+000 7.500000e+000 2.000000e+000
         vertex 0.000000e+000 7.500000e+000 0.000000e+000
      endloop
   endfacet
   facet normal -1.000000e+000 0.000000e+000 0.000000e+000
      outer loop
         vertex 8.500000e+000 4.500000e+000 2.000000e+000
         vertex 8.500000e+000 7.500000e+000 2.000000e+000
         vertex 8.500000e+000 4.500000e+000 0.000000e+000
      endloop
   endfacet
   facet normal -1.000000e+000 0.000000e+000 0.000000e+000
      outer loop
         vertex 8.500000e+000 4.500000e+000 0.000000e+000
         vertex 8.500000e+000 7.500000e+000 2.000000e+000
         vertex 8.500000e+000 7.500000e+000 0.000000e+000
      endloop
   endfacet
   facet normal -4.081702e-016 1.000000e+000 0.000000e+000
      outer loop
         vertex 0.000000e+000 4.500000e+000 2.000000e+000
         vertex 8.500000e+000 4.500000e+000 2.000000e+000
         vertex 0.000000e+000 4.500000e+000 0.000000e+000
      endloop
   endfacet
   facet normal -4.081702e-016 1.000000e+000 0.000000e+000
      outer loop
         vertex 0.000000e+000 4.500000e+000 0.000000e+000
         vertex 8.500000e+000 4.500000e+000 2.000000e+000
         vertex 8.500000e+000 4.500000e+000 0.000000e+000
      endloop
   endfacet
   facet normal -1.000000e+000 0.000000e+000 0.000000e+000
      outer loop
         vertex 0.000000e+000 0.000000e+000 2.000000e+000
         vertex 0.000000e+000 4.500000e+000 2.000000e+000
         vertex 0.000000e+000 0.000000e+000 0.000000e+000
      endloop
   endfacet
   facet normal -1.000000e+000 0.000000e+000 0.000000e+000
      outer loop
         vertex 0.000000e+000 0.000000e+000 0.000000e+000
         vertex 0.000000e+000 4.500000e+000 2.000000e+000
         vertex 0.000000e+000 4.500000e+000 0.000000e+000
      endloop
   endfacet
   facet normal 0.000000e+000 0.000000e+000 1.000000e+000
      outer loop
         vertex 8.500000e+000 4.500000e+000 2.000000e+000
         vertex 0.000000e+000 4.500000e+000 2.000000e+000
         vertex 0.000000e+000 0.000000e+000 2.000000e+000
      endloop
   endfacet
   facet normal 0.000000e+000 0.000000e+000 1.000000e+000
      outer loop
         vertex 8.500000e+000 4.500000e+000 2.000000e+000
         vertex 1.103693e+001 1.969303e+000 2.000000e+000
         vertex 1.114683e+001 2.427051e+000 2.000000e+000
      endloop
   endfacet
   facet normal 0.000000e+000 0.000000e+000 1.000000e+000
      outer loop
         vertex 0.000000e+000 7.500000e+000 2.000000e+000
         vertex 8.500000e+000 7.500000e+000 2.000000e+000
         vertex 0.000000e+000 1.200000e+001 2.000000e+000
      endloop
   endfacet
   facet normal 0.000000e+000 0.000000e+000 1.000000e+000
      outer loop
         vertex 0.000000e+000 1.200000e+001 2.000000e+000
         vertex 8.500000e+000 7.500000e+000 2.000000e+000
         vertex 1.100000e+001 1.050000e+001 2.000000e+000
      endloop
   endfacet
   facet normal 0.000000e+000 0.000000e+000 1.000000e+000
      outer loop
         vertex 0.000000e+000 1.200000e+001 2.000000e+000
         vertex 1.100000e+001 1.050000e+001 2.000000e+000
         vertex 1.100000e+001 1.200000e+001 2.000000e+000
      endloop
   endfacet
   facet normal 0.000000e+000 0.000000e+000 1.000000e+000
      outer loop
         vertex 1.157295e+001 8.736644e+000 2.000000e+000
         vertex 1.132698e+001 9.138028e+000 2.000000e+000
         vertex 8.500000e+000 7.500000e+000 2.000000e+000
      endloop
   endfacet
   facet normal 0.000000e+000 0.000000e+000 1.000000e+000
      outer loop
         vertex 1.103693e+001 1.969303e+000 2.000000e+000
         vertex 8.500000e+000 4.500000e+000 2.000000e+000
         vertex 1.100000e+001 1.500000e+000 2.000000e+000
      endloop
   endfacet
   facet normal 0.000000e+000 0.000000e+000 1.000000e+000
      outer loop
         vertex 1.100000e+001 1.500000e+000 2.000000e+000
         vertex 8.500000e+000 4.500000e+000 2.000000e+000
         vertex 0.000000e+000 0.000000e+000 2.000000e+000
      endloop
   endfacet
   facet normal 0.000000e+000 0.000000e+000 1.000000e+000
      outer loop
         vertex 1.100000e+001 1.500000e+000 2.000000e+000
         vertex 0.000000e+000 0.000000e+000 2.000000e+000
         vertex 1.100000e+001 0.000000e+000 2.000000e+000
      endloop
   endfacet
   facet normal 0.000000e+000 0.000000e+000 1.000000e+000
      outer loop
         vertex 1.132698e+001 9.138028e+000 2.000000e+000
         vertex 1.114683e+001 9.572949e+000 2.000000e+000
         vertex 8.500000e+000 7.500000e+000 2.000000e+000
      endloop
   endfacet
   facet normal 0.000000e+000 0.000000e+000 1.000000e+000
      outer loop
         vertex 8.500000e+000 7.500000e+000 2.000000e+000
         vertex 1.114683e+001 9.572949e+000 2.000000e+000
         vertex 1.103693e+001 1.003070e+001 2.000000e+000
      endloop
   endfacet
   facet normal 0.000000e+000 0.000000e+000 1.000000e+000
      outer loop
         vertex 8.500000e+000 7.500000e+000 2.000000e+000
         vertex 1.103693e+001 1.003070e+001 2.000000e+000
         vertex 1.100000e+001 1.050000e+001 2.000000e+000
      endloop
   endfacet
   facet normal 0.000000e+000 0.000000e+000 1.000000e+000
      outer loop
         vertex 1.114683e+001 2.427051e+000 2.000000e+000
         vertex 1.132698e+001 2.861972e+000 2.000000e+000
         vertex 8.500000e+000 4.500000e+000 2.000000e+000
      endloop
   endfacet
   facet normal 0.000000e+000 0.000000e+000 1.000000e+000
      outer loop
         vertex 8.500000e+000 4.500000e+000 2.000000e+000
         vertex 1.132698e+001 2.861972e+000 2.000000e+000
         vertex 1.157295e+001 3.263356e+000 2.000000e+000
      endloop
   endfacet
   facet normal 0.000000e+000 0.000000e+000 1.000000e+000
      outer loop
         vertex 8.500000e+000 4.500000e+000 2.000000e+000
         vertex 1.157295e+001 3.263356e+000 2.000000e+000
         vertex 1.187868e+001 3.621320e+000 2.000000e+000
      endloop
   endfacet
   facet normal 0.000000e+000 0.000000e+000 1.000000e+000
      outer loop
         vertex 1.223664e+001 3.927051e+000 2.000000e+000
         vertex 1.263803e+001 4.173019e+000 2.000000e+000
         vertex 1.223664e+001 8.072949e+000 2.000000e+000
      endloop
   endfacet
   facet normal 0.000000e+000 0.000000e+000 1.000000e+000
      outer loop
         vertex 1.223664e+001 8.072949e+000 2.000000e+000
         vertex 1.263803e+001 4.173019e+000 2.000000e+000
         vertex 1.307295e+001 4.353169e+000 2.000000e+000
      endloop
   endfacet
   facet normal 0.000000e+000 0.000000e+000 1.000000e+000
      outer loop
         vertex 1.223664e+001 8.072949e+000 2.000000e+000
         vertex 1.307295e+001 4.353169e+000 2.000000e+000
         vertex 1.263803e+001 7.826980e+000 2.000000e+000
      endloop
   endfacet
   facet normal 0.000000e+000 0.000000e+000 1.000000e+000
      outer loop
         vertex 1.157295e+001 8.736644e+000 2.000000e+000
         vertex 8.500000e+000 7.500000e+000 2.000000e+000
         vertex 1.187868e+001 8.378680e+000 2.000000e+000
      endloop
   endfacet
   facet normal 0.000000e+000 0.000000e+000 1.000000e+000
      outer loop
         vertex 1.187868e+001 8.378680e+000 2.000000e+000
         vertex 8.500000e+000 7.500000e+000 2.000000e+000
         vertex 8.500000e+000 4.500000e+000 2.000000e+000
      endloop
   endfacet
   facet normal 0.000000e+000 0.000000e+000 1.000000e+000
      outer loop
         vertex 1.187868e+001 8.378680e+000 2.000000e+000
         vertex 8.500000e+000 4.500000e+000 2.000000e+000
         vertex 1.223664e+001 8.072949e+000 2.000000e+000
      endloop
   endfacet
   facet normal 0.000000e+000 0.000000e+000 1.000000e+000
      outer loop
         vertex 1.223664e+001 8.072949e+000 2.000000e+000
         vertex 8.500000e+000 4.500000e+000 2.000000e+000
         vertex 1.187868e+001 3.621320e+000 2.000000e+000
      endloop
   endfacet
   facet normal 0.000000e+000 0.000000e+000 1.000000e+000
      outer loop
         vertex 1.223664e+001 8.072949e+000 2.000000e+000
         vertex 1.187868e+001 3.621320e+000 2.000000e+000
         vertex 1.223664e+001 3.927051e+000 2.000000e+000
      endloop
   endfacet
   facet normal 0.000000e+000 0.000000e+000 1.000000e+000
      outer loop
         vertex 4.100000e+001 4.500000e+000 2.000000e+000
         vertex 4.100000e+001 7.500000e+000 2.000000e+000
         vertex 1.400000e+001 4.500000e+000 2.000000e+000
      endloop
   endfacet
   facet normal 0.000000e+000 0.000000e+000 1.000000e+000
      outer loop
         vertex 1.400000e+001 4.500000e+000 2.000000e+000
         vertex 4.100000e+001 7.500000e+000 2.000000e+000
         vertex 1.400000e+001 7.500000e+000 2.000000e+000
      endloop
   endfacet
   facet normal 0.000000e+000 0.000000e+000 1.000000e+000
      outer loop
         vertex 1.400000e+001 4.500000e+000 2.000000e+000
         vertex 1.400000e+001 7.500000e+000 2.000000e+000
         vertex 1.353070e+001 4.463065e+000 2.000000e+000
      endloop
   endfacet
   facet normal 0.000000e+000 0.000000e+000 1.000000e+000
      outer loop
         vertex 1.353070e+001 4.463065e+000 2.000000e+000
         vertex 1.400000e+001 7.500000e+000 2.000000e+000
         vertex 1.353070e+001 7.536935e+000 2.000000e+000
      endloop
   endfacet
   facet normal 0.000000e+000 0.000000e+000 1.000000e+000
      outer loop
         vertex 1.353070e+001 4.463065e+000 2.000000e+000
         vertex 1.353070e+001 7.536935e+000 2.000000e+000
         vertex 1.307295e+001 4.353169e+000 2.000000e+000
      endloop
   endfacet
   facet normal 0.000000e+000 0.000000e+000 1.000000e+000
      outer loop
         vertex 1.307295e+001 4.353169e+000 2.000000e+000
         vertex 1.353070e+001 7.536935e+000 2.000000e+000
         vertex 1.307295e+001 7.646830e+000 2.000000e+000
      endloop
   endfacet
   facet normal 0.000000e+000 0.000000e+000 1.000000e+000
      outer loop
         vertex 1.307295e+001 4.353169e+000 2.000000e+000
         vertex 1.307295e+001 7.646830e+000 2.000000e+000
         vertex 1.263803e+001 7.826980e+000 2.000000e+000
      endloop
   endfacet
   facet normal 0.000000e+000 0.000000e+000 -1.000000e+000
      outer loop
         vertex 8.500000e+000 7.500000e+000 0.000000e+000
         vertex 0.000000e+000 7.500000e+000 0.000000e+000
         vertex 0.000000e+000 1.200000e+001 0.000000e+000
      endloop
   endfacet
   facet normal 0.000000e+000 0.000000e+000 -1.000000e+000
      outer loop
         vertex 1.100000e+001 1.500000e+000 0.000000e+000
         vertex 1.100000e+001 0.000000e+000 0.000000e+000
         vertex 0.000000e+000 0.000000e+000 0.000000e+000
      endloop
   endfacet
   facet normal 0.000000e+000 0.000000e+000 -1.000000e+000
      outer loop
         vertex 1.103693e+001 1.969303e+000 0.000000e+000
         vertex 1.100000e+001 1.500000e+000 0.000000e+000
         vertex 8.500000e+000 4.500000e+000 0.000000e+000
      endloop
   endfacet
   facet normal 0.000000e+000 0.000000e+000 -1.000000e+000
      outer loop
         vertex 8.500000e+000 4.500000e+000 0.000000e+000
         vertex 1.100000e+001 1.500000e+000 0.000000e+000
         vertex 0.000000e+000 0.000000e+000 0.000000e+000
      endloop
   endfacet
   facet normal 0.000000e+000 0.000000e+000 -1.000000e+000
      outer loop
         vertex 8.500000e+000 4.500000e+000 0.000000e+000
         vertex 0.000000e+000 0.000000e+000 0.000000e+000
         vertex 0.000000e+000 4.500000e+000 0.000000e+000
      endloop
   endfacet
   facet normal 0.000000e+000 0.000000e+000 -1.000000e+000
      outer loop
         vertex 8.500000e+000 7.500000e+000 0.000000e+000
         vertex 1.103693e+001 1.003070e+001 0.000000e+000
         vertex 1.114683e+001 9.572949e+000 0.000000e+000
      endloop
   endfacet
   facet normal 0.000000e+000 0.000000e+000 -1.000000e+000
      outer loop
         vertex 1.103693e+001 1.003070e+001 0.000000e+000
         vertex 8.500000e+000 7.500000e+000 0.000000e+000
         vertex 1.100000e+001 1.050000e+001 0.000000e+000
      endloop
   endfacet
   facet normal 0.000000e+000 0.000000e+000 -1.000000e+000
      outer loop
         vertex 1.100000e+001 1.050000e+001 0.000000e+000
         vertex 8.500000e+000 7.500000e+000 0.000000e+000
         vertex 0.000000e+000 1.200000e+001 0.000000e+000
      endloop
   endfacet
   facet normal 0.000000e+000 0.000000e+000 -1.000000e+000
      outer loop
         vertex 1.100000e+001 1.050000e+001 0.000000e+000
         vertex 0.000000e+000 1.200000e+001 0.000000e+000
         vertex 1.100000e+001 1.200000e+001 0.000000e+000
      endloop
   endfacet
   facet normal 0.000000e+000 0.000000e+000 -1.000000e+000
      outer loop
         vertex 8.500000e+000 4.500000e+000 0.000000e+000
         vertex 1.187868e+001 3.621320e+000 0.000000e+000
         vertex 1.157295e+001 3.263356e+000 0.000000e+000
      endloop
   endfacet
   facet normal 0.000000e+000 0.000000e+000 -1.000000e+000
      outer loop
         vertex 1.114683e+001 9.572949e+000 0.000000e+000
         vertex 1.132698e+001 9.138028e+000 0.000000e+000
         vertex 8.500000e+000 7.500000e+000 0.000000e+000
      endloop
   endfacet
   facet normal 0.000000e+000 0.000000e+000 -1.000000e+000
      outer loop
         vertex 8.500000e+000 7.500000e+000 0.000000e+000
         vertex 1.132698e+001 9.138028e+000 0.000000e+000
         vertex 1.157295e+001 8.736644e+000 0.000000e+000
      endloop
   endfacet
   facet normal 0.000000e+000 0.000000e+000 -1.000000e+000
      outer loop
         vertex 8.500000e+000 7.500000e+000 0.000000e+000
         vertex 1.157295e+001 8.736644e+000 0.000000e+000
         vertex 8.500000e+000 4.500000e+000 0.000000e+000
      endloop
   endfacet
   facet normal 0.000000e+000 0.000000e+000 -1.000000e+000
      outer loop
         vertex 8.500000e+000 4.500000e+000 0.000000e+000
         vertex 1.157295e+001 8.736644e+000 0.000000e+000
         vertex 1.187868e+001 8.378680e+000 0.000000e+000
      endloop
   endfacet
   facet normal 0.000000e+000 0.000000e+000 -1.000000e+000
      outer loop
         vertex 8.500000e+000 4.500000e+000 0.000000e+000
         vertex 1.187868e+001 8.378680e+000 0.000000e+000
         vertex 1.223664e+001 8.072949e+000 0.000000e+000
      endloop
   endfacet
   facet normal 0.000000e+000 0.000000e+000 -1.000000e+000
      outer loop
         vertex 1.157295e+001 3.263356e+000 0.000000e+000
         vertex 1.132698e+001 2.861972e+000 0.000000e+000
         vertex 8.500000e+000 4.500000e+000 0.000000e+000
      endloop
   endfacet
   facet normal 0.000000e+000 0.000000e+000 -1.000000e+000
      outer loop
         vertex 8.500000e+000 4.500000e+000 0.000000e+000
         vertex 1.132698e+001 2.861972e+000 0.000000e+000
         vertex 1.114683e+001 2.427051e+000 0.000000e+000
      endloop
   endfacet
   facet normal 0.000000e+000 0.000000e+000 -1.000000e+000
      outer loop
         vertex 8.500000e+000 4.500000e+000 0.000000e+000
         vertex 1.114683e+001 2.427051e+000 0.000000e+000
         vertex 1.103693e+001 1.969303e+000 0.000000e+000
      endloop
   endfacet
   facet normal 0.000000e+000 0.000000e+000 -1.000000e+000
      outer loop
         vertex 1.353070e+001 7.536935e+000 0.000000e+000
         vertex 1.307295e+001 4.353169e+000 0.000000e+000
         vertex 1.307295e+001 7.646830e+000 0.000000e+000
      endloop
   endfacet
   facet normal 0.000000e+000 0.000000e+000 -1.000000e+000
      outer loop
         vertex 1.307295e+001 7.646830e+000 0.000000e+000
         vertex 1.307295e+001 4.353169e+000 0.000000e+000
         vertex 1.263803e+001 4.173019e+000 0.000000e+000
      endloop
   endfacet
   facet normal 0.000000e+000 0.000000e+000 -1.000000e+000
      outer loop
         vertex 1.187868e+001 3.621320e+000 0.000000e+000
         vertex 8.500000e+000 4.500000e+000 0.000000e+000
         vertex 1.223664e+001 3.927051e+000 0.000000e+000
      endloop
   endfacet
   facet normal 0.000000e+000 0.000000e+000 -1.000000e+000
      outer loop
         vertex 1.223664e+001 3.927051e+000 0.000000e+000
         vertex 8.500000e+000 4.500000e+000 0.000000e+000
         vertex 1.223664e+001 8.072949e+000 0.000000e+000
      endloop
   endfacet
   facet normal 0.000000e+000 0.000000e+000 -1.000000e+000
      outer loop
         vertex 1.223664e+001 3.927051e+000 0.000000e+000
         vertex 1.223664e+001 8.072949e+000 0.000000e+000
         vertex 1.263803e+001 4.173019e+000 0.000000e+000
      endloop
   endfacet
   facet normal 0.000000e+000 0.000000e+000 -1.000000e+000
      outer loop
         vertex 1.263803e+001 4.173019e+000 0.000000e+000
         vertex 1.223664e+001 8.072949e+000 0.000000e+000
         vertex 1.263803e+001 7.826980e+000 0.000000e+000
      endloop
   endfacet
   facet normal 0.000000e+000 0.000000e+000 -1.000000e+000
      outer loop
         vertex 1.263803e+001 4.173019e+000 0.000000e+000
         vertex 1.263803e+001 7.826980e+000 0.000000e+000
         vertex 1.307295e+001 7.646830e+000 0.000000e+000
      endloop
   endfacet
   facet normal 0.000000e+000 0.000000e+000 -1.000000e+000
      outer loop
         vertex 4.100000e+001 7.500000e+000 0.000000e+000
         vertex 4.100000e+001 4.500000e+000 0.000000e+000
         vertex 1.400000e+001 7.500000e+000 0.000000e+000
      endloop
   endfacet
   facet normal 0.000000e+000 0.000000e+000 -1.000000e+000
      outer loop
         vertex 1.400000e+001 7.500000e+000 0.000000e+000
         vertex 4.100000e+001 4.500000e+000 0.000000e+000
         vertex 1.400000e+001 4.500000e+000 0.000000e+000
      endloop
   endfacet
   facet normal 0.000000e+000 0.000000e+000 -1.000000e+000
      outer loop
         vertex 1.400000e+001 7.500000e+000 0.000000e+000
         vertex 1.400000e+001 4.500000e+000 0.000000e+000
         vertex 1.353070e+001 7.536935e+000 0.000000e+000
      endloop
   endfacet
   facet normal 0.000000e+000 0.000000e+000 -1.000000e+000
      outer loop
         vertex 1.353070e+001 7.536935e+000 0.000000e+000
         vertex 1.400000e+001 4.500000e+000 0.000000e+000
         vertex 1.353070e+001 4.463065e+000 0.000000e+000
      endloop
   endfacet
   facet normal 0.000000e+000 0.000000e+000 -1.000000e+000
      outer loop
         vertex 1.353070e+001 7.536935e+000 0.000000e+000
         vertex 1.353070e+001 4.463065e+000 0.000000e+000
         vertex 1.307295e+001 4.353169e+000 0.000000e+000
      endloop
   endfacet
endsolid